<?xml version="1.0"?>
<svg version="1.1" xmlns="http://www.w3.org/2000/svg" width="180" height="80" style=""><path fill="#002a47" d="M16.845703125,65.25390625q-0.029296875-0.87890625-0.029296875-1.7578125q0-2.75390625,0.29296875-5.537109375q0.3515625-3.69140625,0.46875-7.265625q0.1171875-4.189453125,0.3515625-8.701171875q0.146484375-2.4609375,0.146484375-4.86328125q0-1.962890625-0.087890625-3.896484375q0.29296875-0.673828125,0.7763671875-0.908203125t1.2158203125-0.234375q0.3515625,0,0.7470703125,0.05859375t0.6884765625,0.29296875q0.41015625,0.05859375,1.0107421875,0.1171875t0.9228515625,0.3515625q0.1171875,0.17578125,0.6005859375,1.201171875t1.142578125,2.490234375t1.376953125,3.1787109375t1.376953125,3.251953125t1.142578125,2.7099609375t0.6005859375,1.46484375q2.75390625-4.98046875,5.390625-10.2392578125t5.771484375-9.9169921875q0.29296875-0.41015625,1.0107421875-0.6005859375t1.1865234375-0.1904296875q1.259765625,0,1.8310546875,0.6005859375t0.7470703125,1.5380859375q0.1171875,0.5859375,0.146484375,1.259765625q0.029296875,0.3515625-0.029296875,0.732421875q-0.1171875,1.083984375-0.1171875,2.05078125q0,6.826171875-0.46875,13.5498046875t-0.849609375,13.5791015625q-0.05859375,1.40625-0.05859375,2.9296875t0.05859375,3.1640625q0.029296875,0.5859375,0.029296875,1.142578125q0,2.578125-0.439453125,4.8046875q-0.41015625,0.673828125-1.34765625,0.849609375t-1.58203125,0.17578125q-1.376953125,0-2.63671875-0.64453125l-0.322265625-0.380859375l-0.1171875-0.46875t-0.05859375-0.46875q0-4.248046875,0.3076171875-8.5546875t0.6884765625-8.5986328125t0.8056640625-8.5693359375t0.7177734375-8.5546875q-1.728515625,2.87109375-3.3544921875,5.8447265625t-3.0615234375,6.0498046875q-0.52734375,1.201171875-1.0107421875,2.578125t-1.1572265625,2.4609375q-0.3515625,0.52734375-1.1865234375,0.64453125t-1.4501953125,0.1171875q-0.5859375,0-1.2158203125-0.205078125t-0.8642578125-0.87890625q-1.083984375-3.310546875-2.314453125-6.474609375t-2.490234375-6.416015625q0,2.16796875,0.087890625,5.6103515625t0.087890625,7.1337890625t-0.1171875,7.060546875t-0.556640625,5.33203125q-0.1171875,0.732421875-0.9521484375,0.908203125t-1.4501953125,0.17578125q-0.46875,0-0.8935546875-0.05859375t-0.8349609375-0.234375z M51.64072265625,59.072265625q0-1.9921875,0.5419921875-3.837890625t1.6259765625-3.2958984375t2.7099609375-2.314453125t3.7646484375-0.8642578125q1.318359375,0,2.9150390625,0.3955078125t3.0029296875,1.171875t2.34375,1.9775390625t0.9375,2.75390625q0,0.732421875-0.2490234375,1.11328125t-1.0107421875,0.380859375l-0.322265625-0.05859375q0.849609375,2.28515625,1.46484375,4.6875t1.201171875,4.8046875q0.234375,0.46875,0.3515625,0.8349609375t0.1171875,0.7177734375q0,0.46875-0.263671875,0.7763671875t-0.6884765625,0.4541015625t-0.87890625,0.205078125t-0.8056640625,0.05859375q-1.259765625,0-1.8896484375-0.439453125t-0.908203125-1.201171875t-0.3369140625-1.7138671875t-0.234375-1.9189453125q-0.3515625,1.142578125-0.9228515625,2.2265625t-1.34765625,1.9482421875t-1.8310546875,1.376953125t-2.373046875,0.5126953125q-1.93359375,0-3.251953125-1.11328125t-2.1240234375-2.7392578125t-1.171875-3.4716796875t-0.3662109375-3.427734375z M55.80087890625,58.662109375q0,1.083984375,0.146484375,2.28515625t0.4833984375,2.373046875t0.8642578125,2.2119140625t1.318359375,1.8310546875q1.435546875-1.552734375,2.1240234375-3.779296875t1.23046875-4.2919921875t1.23046875-3.544921875t2.1240234375-1.4794921875q0.908203125,0,1.5234375,0.322265625q-0.29296875-0.732421875-0.966796875-1.4208984375t-1.5087890625-1.259765625t-1.728515625-0.9375t-1.6845703125-0.3662109375q-0.234375,0-0.5419921875,0.0732421875t-0.4833984375,0.0146484375q-1.201171875,0.3515625-1.9775390625,1.2158203125t-1.259765625,2.0361328125t-0.6884765625,2.40234375t-0.205078125,2.314453125z M75.5373046875,68.271484375q0-0.17578125,0.4248046875-0.9375t1.083984375-1.8310546875t1.435546875-2.3291015625t1.552734375-2.490234375t1.4501953125-2.2265625t1.025390625-1.5234375q-0.3515625-0.673828125-1.201171875-1.845703125t-1.7431640625-2.373046875t-1.552734375-2.314453125t-0.6591796875-1.640625q0-0.849609375,0.8349609375-1.11328125t1.6259765625-0.263671875q0.849609375,0,1.201171875,0.146484375t0.9375,0.8203125q-0.05859375,0.17578125,0.4248046875,0.9228515625t1.142578125,1.58203125t1.259765625,1.5234375t0.7177734375,0.8935546875l1.2890625-1.2890625t1.5966796875-1.4794921875t1.7431640625-1.201171875t1.669921875-0.4833984375q0.29296875,0,0.8935546875,0.146484375t0.6005859375,0.5859375q-0.849609375,0.908203125-1.552734375,1.494140625t-1.435546875,1.1865234375t-1.46484375,1.34765625t-1.69921875,1.8896484375q0.41015625,0.673828125,1.552734375,2.2265625t2.314453125,3.2958984375t2.0654296875,3.28125t0.8935546875,2.1240234375q0,0.3515625-0.3662109375,0.5712890625t-0.8349609375,0.3662109375t-0.9521484375,0.205078125t-0.7177734375,0.05859375q-0.673828125,0-1.5380859375-0.17578125t-1.2451171875-0.791015625q-1.142578125-1.669921875-1.9775390625-3.5009765625t-2.0361328125-3.5009765625q-0.234375,0.41015625-0.9521484375,1.93359375t-1.7138671875,3.2080078125t-2.0947265625,3.0029296875t-2.0068359375,1.318359375l-0.05859375,0q-0.41015625,0-1.171875-0.146484375t-0.76171875-0.673828125z M98.46708984375,29.248046875q0-2.05078125,0.703125-2.75390625t1.962890625-0.703125q0.3515625,0,0.7470703125,0.05859375t0.7470703125,0.17578125q1.962890625-0.380859375,3.720703125-0.380859375q2.841796875,0,5.15625,0.99609375q3.720703125,1.58203125,6.15234375,4.6875t3.57421875,7.294921875t1.142578125,8.583984375q0,2.4609375-0.3369140625,5.126953125t-1.3037109375,4.951171875q-0.849609375,2.05078125-2.34375,4.2919921875t-3.3837890625,4.248046875t-4.072265625,3.515625t-4.4091796875,2.0361328125l0,0.234375q0,0.5859375-0.3076171875,0.9521484375t-0.7470703125,0.556640625t-1.0107421875,0.2490234375t-1.0693359375,0.05859375q-0.29296875,0-0.8349609375-0.05859375t-1.0546875-0.2197265625t-0.8642578125-0.4248046875t-0.3515625-0.732421875q0-5.33203125-0.2783203125-10.6787109375t-0.6298828125-10.693359375t-0.6298828125-10.6787109375t-0.2783203125-10.693359375z M104.00419921875,27.75390625q0.29296875,2.8125,0.380859375,5.6103515625t0.263671875,5.6103515625q0.46875,7.265625,1.083984375,14.4580078125t0.732421875,14.4580078125q2.8125-1.845703125,4.8193359375-4.21875t3.2958984375-5.15625t1.8896484375-5.8447265625t0.6005859375-6.3134765625q0-2.34375-0.41015625-5.15625t-1.40625-5.419921875t-2.6806640625-4.716796875t-4.2041015625-3.017578125q-0.52734375-0.17578125-1.2744140625-0.29296875t-2.3876953125-0.1171875q-0.17578125,0-0.3515625,0.05859375t-0.3515625,0.05859375z M128.340234375,60.2734375q0-2.05078125,0.4541015625-4.833984375t1.5380859375-5.2734375t2.8564453125-4.2333984375t4.4677734375-1.7431640625q2.51953125,0,3.779296875,1.4501953125t1.259765625,3.9111328125q0,1.611328125-0.6005859375,3.5302734375t-1.7138671875,3.6328125t-2.63671875,2.8564453125t-3.3984375,1.142578125l-0.76171875-0.05859375q0,0.791015625,0.234375,2.1240234375t0.6884765625,2.6513671875t1.171875,2.314453125t1.7431640625,0.99609375q1.494140625,0,2.87109375-1.201171875t2.607421875-2.666015625t2.28515625-2.666015625t1.93359375-1.201171875q0.46875,0,0.966796875,0.146484375t0.556640625,0.8203125q0,0.41015625-0.2197265625,0.673828125t-0.3955078125,0.5859375q-0.908203125,1.552734375-1.9775390625,2.958984375t-2.4169921875,2.548828125t-2.9443359375,1.8017578125t-3.5302734375,0.6591796875q-2.51953125,0-4.189453125-0.8935546875t-2.6953125-2.40234375t-1.4794921875-3.486328125t-0.4541015625-4.1455078125z M133.584375,58.046875l0.8203125,0.732421875q0.5859375,0.52734375,1.171875,0.234375t1.0546875-1.0693359375t0.8642578125-1.9189453125t0.703125-2.34375t0.4541015625-2.34375t0.146484375-1.904296875l0-0.99609375t-0.087890625-1.0546875t-0.3076171875-0.8349609375t-0.6884765625-0.4248046875q-0.146484375-0.029296875-0.263671875-0.029296875q-0.99609375,0-1.69921875,1.259765625q-0.76171875,1.40625-1.23046875,3.4130859375t-0.673828125,4.1162109375t-0.263671875,3.1640625z M151.62158203125,48.173828125q0-0.234375,0.2783203125-0.4248046875t0.6298828125-0.2783203125t0.7177734375-0.1171875t0.5419921875-0.029296875q1.318359375,0,2.255859375,1.171875t1.6259765625,3.0029296875t1.171875,4.04296875t0.9228515625,4.4091796875t0.8642578125,4.0283203125t0.9521484375,2.8271484375q0.908203125-1.787109375,1.6552734375-4.306640625t1.376953125-5.21484375t1.11328125-5.3173828125t0.7763671875-4.5849609375q0.1171875-0.52734375,0.732421875-0.6591796875t1.025390625-0.1318359375q0.673828125,0,1.171875,0.1904296875t0.498046875,0.8349609375q0,1.083984375-0.263671875,2.9443359375t-0.7177734375,4.1748046875t-1.0546875,4.74609375t-1.2890625,4.6142578125t-1.435546875,3.8671875t-1.4794921875,2.3876953125q-0.3515625,0.41015625-1.0986328125,0.5712890625t-1.2451171875,0.1611328125q-1.728515625,0-2.87109375-0.908203125l0,0.05859375q-1.787109375-1.669921875-2.63671875-4.072265625t-1.23046875-5.009765625t-0.6884765625-5.185546875t-1.0400390625-4.6875q-0.1171875-0.234375-0.29296875-0.6884765625t-0.41015625-0.908203125t-0.3955078125-0.8642578125t-0.1611328125-0.64453125z"/><path fill="#" d=""/></svg>
